<svg width="777" height="1242" viewBox="0 0 777 1242" fill="none" xmlns="http://www.w3.org/2000/svg">
<rect y="155.25" width="155.25" height="155.25" fill="#989F8F"/>
<rect x="155.25" y="155.25" width="155.25" height="155.25" fill="#DCDAD9"/>
<rect x="310.5" y="155.25" width="155.25" height="155.25" fill="#A1A1A1"/>
<rect x="465.75" y="155.25" width="155.25" height="155.25" fill="#D9D9D9"/>
<rect x="155.25" width="155.25" height="155.25" fill="#B2ADA8"/>
<rect x="310.5" width="155.25" height="155.25" fill="#D9D9D9"/>
<rect x="465.75" width="155.25" height="155.25" fill="#C2C6C9"/>
<rect x="621" y="155.25" width="155.25" height="155.25" fill="#D9D9D9"/>
<rect y="310.5" width="155.25" height="155.25" fill="#C2C6C9"/>
<rect x="155.25" y="310.5" width="155.25" height="155.25" fill="#989F8F"/>
<rect x="310.5" y="310.5" width="155.25" height="155.25" fill="#D9D9D9"/>
<rect x="155.25" y="776.25" width="155.25" height="155.25" fill="#D6D0CD"/>
<rect x="155.25" y="621" width="155.25" height="155.25" fill="#D6D0CD"/>
<rect x="155.25" y="931.5" width="155.25" height="155.25" fill="#D9D9D9"/>
<rect x="310.5" y="465.75" width="155.25" height="155.25" fill="#D9D9D9"/>
<rect x="155.25" y="1086.75" width="155.25" height="155.25" fill="#D6D0CD"/>
<rect x="465.75" y="310.5" width="155.25" height="155.25" fill="#A1A1A1"/>
<rect x="621" y="310.5" width="155.25" height="155.25" fill="#A1A1A1"/>
</svg>
